<?xml version="1.0" standalone="no"?>
<!DOCTYPE svg PUBLIC "-//W3C//DTD SVG 20010904//EN"
 "http://www.w3.org/TR/2001/REC-SVG-20010904/DTD/svg10.dtd">
<svg version="1.0" xmlns="http://www.w3.org/2000/svg"
 width="1168.000000pt" height="1008.000000pt" viewBox="0 0 1168.000000 1008.000000"
 preserveAspectRatio="xMidYMid meet">

<g transform="translate(0.000000,1008.000000) scale(0.100000,-0.100000)"
fill="#000000" stroke="none">
<path d="M8211 8993 c-524 -3 -677 -6 -683 -16 -5 -6 -8 -264 -7 -572 1 -308
1 -582 0 -609 l-1 -49 -1572 -1576 c-3339 -3344 -3039 -3047 -3083 -3054 -22
-4 -302 -7 -621 -7 -521 0 -582 -2 -588 -16 -3 -9 -6 -318 -6 -689 l0 -672 37
-7 c70 -11 1351 -7 1358 5 4 6 6 266 6 577 -1 312 1 587 5 612 6 44 32 71
1148 1188 637 637 1149 1142 1159 1142 9 0 17 -7 17 -15 0 -30 73 -105 1325
-1365 424 -426 780 -788 793 -804 l22 -30 0 -658 0 -658 702 2 702 3 -1 687
c-1 378 -4 692 -8 698 -4 7 -197 10 -572 10 l-565 0 -637 633 c-350 347 -862
856 -1138 1130 -277 274 -503 504 -503 510 0 13 1489 1507 1922 1928 l277 270
606 -1 c334 -1 609 1 612 4 8 8 5 1384 -2 1397 -4 5 -12 8 -18 7 -7 -2 -316
-4 -686 -5z m484 -243 c12 -19 5 -913 -7 -927 -9 -11 -98 -13 -472 -11 l-461
3 -3 473 -2 472 469 0 c302 0 472 -4 476 -10z m-3167 -3458 c9 -11 43 -46 75
-79 54 -58 69 -83 47 -83 -5 0 -10 -5 -10 -11 0 -8 5 -7 15 1 28 23 30 0 2
-26 l-27 -25 -9 23 c-5 13 -6 30 -4 38 4 11 3 12 -4 2 -5 -7 -16 -10 -25 -7
-8 3 -21 -1 -28 -10 -18 -21 -30 -19 -30 8 0 16 -3 18 -9 8 -7 -11 -10 -9 -16
8 -3 11 -10 21 -15 21 -5 0 -33 23 -61 50 -51 50 -52 50 -34 73 10 12 35 37
54 54 l36 33 13 -30 c6 -17 20 -38 30 -48z m48 -209 c20 -27 17 -35 -6 -16
-20 17 -26 33 -14 33 4 0 13 -8 20 -17z m134 -14 c0 -11 -27 -12 -34 0 -3 4
-3 11 0 14 8 8 34 -3 34 -14z m-2883 -2183 c8 -8 3 -930 -5 -938 -10 -10 -901
-12 -924 -3 -17 7 -18 39 -18 475 0 431 1 469 17 472 27 5 924 0 930 -6z
m5861 -8 c17 -17 17 -909 0 -926 -9 -9 -127 -12 -469 -12 -407 0 -458 2 -463
16 -8 21 -8 919 1 927 3 4 212 7 463 7 341 0 459 -3 468 -12z"/>
</g>
</svg>
