<?xml version="1.0" standalone="no"?>
<!DOCTYPE svg PUBLIC "-//W3C//DTD SVG 20010904//EN"
 "http://www.w3.org/TR/2001/REC-SVG-20010904/DTD/svg10.dtd">
<svg version="1.0" xmlns="http://www.w3.org/2000/svg"
 width="214.000000pt" height="180.000000pt" viewBox="0 0 214.000000 180.000000"
 preserveAspectRatio="xMidYMid meet">

<g transform="translate(0.000000,180.000000) scale(0.100000,-0.100000)"
fill="#000000" stroke="none">
<path d="M1420 1479 l0 -112 -417 -418 -417 -419 -113 0 -113 0 0 -125 0 -125
125 0 125 0 0 110 0 110 214 215 c130 131 220 213 228 210 19 -8 41 -44 25
-41 -7 1 -19 6 -27 10 -8 5 72 -78 177 -185 l193 -194 0 -117 0 -118 125 0
125 0 0 125 0 125 -103 0 -102 0 -208 208 -208 208 200 197 200 197 111 0 110
0 0 125 0 125 -125 0 -125 0 0 -111z m210 -14 l0 -85 -85 0 -85 0 0 85 0 85
85 0 85 0 0 -85z m-1060 -1060 l0 -85 -85 0 -85 0 0 85 0 85 85 0 85 0 0 -85z
m1060 0 l0 -85 -85 0 -85 0 0 85 0 85 85 0 85 0 0 -85z"/>
</g>
</svg>
