<?xml version="1.0" standalone="no"?>
<!DOCTYPE svg PUBLIC "-//W3C//DTD SVG 20010904//EN"
 "http://www.w3.org/TR/2001/REC-SVG-20010904/DTD/svg10.dtd">
<svg version="1.0" xmlns="http://www.w3.org/2000/svg"
 width="672.000000pt" height="608.000000pt" viewBox="0 0 672.000000 608.000000"
 preserveAspectRatio="xMidYMid meet">

<g transform="translate(0.000000,608.000000) scale(0.100000,-0.100000)"
fill="#000000" stroke="none">
<path d="M4965 5410 l-410 -5 -1 -368 0 -369 -80 -77 c-43 -43 -668 -668
-1388 -1389 l-1308 -1312 -374 0 -374 0 0 -415 0 -415 22 -5 c13 -3 201 -4
418 -3 l395 3 3 370 2 370 673 673 c369 370 684 681 700 690 15 9 29 23 32 32
3 8 17 23 30 33 24 17 26 17 32 1 4 -10 30 -43 59 -73 39 -42 50 -59 42 -68
-6 -7 -17 -13 -25 -13 -13 0 -13 3 -3 15 11 13 8 14 -19 9 -23 -5 -31 -3 -31
7 0 11 -2 11 -10 -1 -8 -13 -10 -12 -10 3 0 9 -5 17 -11 17 -5 0 -7 4 -4 10 4
6 -1 7 -11 3 -11 -4 -15 -2 -11 4 4 6 -2 13 -13 16 -11 3 -20 1 -20 -4 0 -8
331 -345 1148 -1165 l132 -134 0 -400 0 -400 422 2 422 3 -1 415 -1 415 -342
3 -342 2 -382 379 c-209 209 -517 514 -684 679 -166 165 -302 304 -302 309 0
6 295 303 655 662 l654 651 371 0 c345 0 370 1 371 18 0 13 0 717 -1 810 0 12
-3 21 -7 20 -5 -2 -192 -5 -418 -8z m291 -139 c5 -6 7 -117 4 -283 l-5 -273
-282 -3 -283 -2 0 285 0 285 278 0 c162 0 282 -4 288 -9z m-1799 -2198 c-4 -3
-2 -11 3 -18 7 -8 5 -12 -4 -12 -8 0 -12 7 -11 16 5 22 4 21 12 21 3 0 3 -3 0
-7z m-1722 -1605 l0 -283 -265 -3 c-146 -1 -275 0 -287 3 l-23 5 0 279 c0 254
2 280 17 283 9 2 138 2 287 1 l271 -2 0 -283z m3523 17 c1 -143 0 -270 -3
-282 l-5 -23 -274 0 c-241 0 -275 2 -280 16 -3 9 -6 137 -6 285 l0 269 283 -2
282 -3 3 -260z"/>
</g>
</svg>
