<?xml version="1.0" standalone="no"?>
<!DOCTYPE svg PUBLIC "-//W3C//DTD SVG 20010904//EN"
 "http://www.w3.org/TR/2001/REC-SVG-20010904/DTD/svg10.dtd">
<svg version="1.0" xmlns="http://www.w3.org/2000/svg"
 width="60.000000pt" height="60.000000pt" viewBox="0 0 60.000000 60.000000"
 preserveAspectRatio="xMidYMid meet">

<g transform="translate(0.000000,60.000000) scale(0.100000,-0.100000)"
fill="#000000" stroke="none">
<path d="M400 495 c0 -31 -16 -55 -116 -175 -93 -113 -121 -140 -142 -141 -24
-2 -24 -2 -4 -6 17 -3 22 -11 22 -34 0 -24 -4 -29 -24 -29 -20 0 -25 6 -29 32
l-4 33 -1 -36 c-2 -38 9 -49 49 -49 15 0 19 7 19 39 0 36 11 52 120 180 105
123 125 141 150 141 28 0 30 2 30 40 0 39 -1 40 -35 40 -33 0 -35 -2 -35 -35z
m58 -7 c3 -24 0 -28 -22 -28 -22 0 -26 4 -26 31 0 26 3 30 23 27 16 -2 23 -11
25 -30z"/>
<path d="M300 299 c0 -4 23 -35 50 -69 41 -51 50 -70 50 -101 0 -38 1 -39 35
-39 35 0 35 0 35 45 0 45 0 45 -35 45 -19 0 -35 3 -35 8 -1 9 -100 119 -100
111z m160 -164 c0 -20 -5 -25 -25 -25 -20 0 -25 5 -25 25 0 20 5 25 25 25 20
0 25 -5 25 -25z"/>
</g>
</svg>
